# xmcd
#
# Track frame offsets:
# 150
# 17880
# 33751
# 49592
# 65782
# 85401
# 104692
# 123596
# 140183
# 161367
# 177065
# 192712
# 208631
# 224041
# 243057
# 261756
# 277375
# 293435
#
# Disc length: 4108 seconds
#
#
# Revision: 0
# Processed by: cddbd v1.5.2PL0 Copyright (c) Steve Scherf et al.
# Submitted via: FreeRIP 2.945 
#
DISCID=1d100a12
DTITLE=LEANDRO Y LEONARDO - SUS EXITOS
DYEAR=0099
DGENRE=SERTANEJA
TTITLE0=TEMPORAL DE AMOR
TTITLE1=PIENSA EN MI
TTITLE2=VEN A HACER EL AMOR CONMIGO
TTITLE3=LOCO
TTITLE4=TE JURO
TTITLE5=DISCULPA MAS VOY A LLORAR
TTITLE6=SUEÑO POR SUEÑO
TTITLE7=NO APRENDI A DECIR ADIÓS
TTITLE8=TALISMAN
TTITLE9=GOLPES Y BESOS
TTITLE10=NO ME VEAS ASI
TTITLE11=LO QUE SIENTO
TTITLE12=NUNCA ME DIGAS ADIÓS
TTITLE13=DULCE MISTERIO
TTITLE14=DIME AMOR
TTITLE15=AMOR VAMPIRO
TTITLE16=PAZ EN LA CAMA
TTITLE17=MEXI MEXI
EXTD=
EXTT0=
EXTT1=
EXTT2=
EXTT3=
EXTT4=
EXTT5=
EXTT6=
EXTT7=
EXTT8=
EXTT9=
EXTT10=
EXTT11=
EXTT12=
EXTT13=
EXTT14=
EXTT15=
EXTT16=
EXTT17=
PLAYORDER=
